<svg width="1164" height="759" viewBox="0 0 1164 759" fill="none" xmlns="http://www.w3.org/2000/svg">
<path d="M1071.17 515.101L1071.46 516.018L1069.93 521.658L1069.26 522.748L1068.21 522.954L1066.48 522.424L1065.17 521.799L1063.72 520.745L1063.05 519.473L1064.15 518.158L1065.85 518.067L1067.02 517.487L1069.49 515.629L1071.17 515.101ZM1086.59 490.988L1087.03 491.285L1087.41 491.982L1086.97 492.945L1086.02 493.189L1084.95 493.01L1084.13 492.675L1083.6 492.556L1083.21 492.616L1082.43 492.867L1079.76 492.642L1077.09 491.992L1074.62 492.133L1072.52 494.251L1071.26 497.067L1070.52 498.272L1069.43 499.32L1065.87 501.43L1064.93 501.709L1063.56 501.109L1063.14 499.76L1063.16 496.125L1062.68 494.325L1061.72 492.317L1060.53 491.272L1059.3 492.381L1058.88 494.076L1058.72 495.611L1058.14 496.632L1056.47 496.797L1053.28 496.161L1051.74 495.561L1050.3 494.65L1049.07 493.467L1048.53 492.157L1047.88 491.093L1044.84 490.149L1042.72 488.145L1041.35 488.049L1039.22 488.274L1038.11 488.173L1037.17 487.765L1036.47 486.938L1035.87 486.007L1035.18 485.455L1034.21 485.749L1033.16 487.369L1032.56 489.332L1031.61 490.831L1029.46 491.046L1021.6 489.909L1017.67 490.588L1015.22 493.09L1013.82 492.953L1007.83 493.498L998.177 496.475L995.274 496.714L992.42 496.53L989.691 494.565L988.482 490.798L987.578 486.693L985.78 483.739L984.283 483.11L982.995 483.248L981.722 483.643L980.239 483.776L978.819 483.363L975.447 481.858L976.362 478.768L976.174 478.391L975.593 477.694L975.445 477.556L975.484 477.587L974.592 476.277L974.473 476.038L974.364 475.62L974.256 473.749L975.326 472.025L977.336 470.718L981.996 469.623L982.646 469.356L983.328 468.459L984.958 465.678L985.874 464.758L986.818 464.334L987.819 464.052L988.84 463.569L989.704 462.827L992.079 459.869L996.193 456.481L997.208 455.545L998.177 454.78L998.747 454.498L999.859 454.245L1000.09 453.9L1000.2 453.48L1000.44 453.111L1001.49 452.447L1001.5 452.408L1003.24 451.311L1003.96 450.49L1004.58 449.574L1005.33 448.754L1006.47 448.204L1007.39 448.135L1009.27 448.328L1010.17 448.204L1013.35 445.334L1014.72 445.342L1015.78 445.79L1016.33 446.173L1016.77 446.556L1018.93 446.862L1026.58 446.446L1022.28 452.338L1022.66 452.722L1025.3 453.017L1025.81 453.262L1027.73 455.273L1028.23 455.563L1028.93 455.79L1030.17 456.035L1030.92 456.316L1032.3 457.441L1035.37 459.123L1036.33 459.428L1037.89 459.118L1042.31 454.932L1044.44 451.647L1045.77 450.526L1051.78 447.249L1057.38 445.378L1059.39 448.43L1060.87 451.292L1061.54 452.254L1061.83 452.426L1061.94 450.851L1062.35 450.581L1063.06 450.609L1064.89 451.55L1065.79 451.869L1066.46 451.947L1066.8 451.701L1067.54 451.592L1068.63 451.672L1072.17 452.888L1072.92 453.323L1073.49 453.98L1074.1 455.02L1076.82 458.752L1077.36 459.043L1077.99 459.252L1079.6 459.513L1080.96 459.266L1082.89 459.142L1086.05 460.204L1090.13 461.074L1091.28 460.956L1092.02 460.037L1092.69 459.434L1093.64 460.127L1094.97 462.064L1095.45 462.464L1096.23 462.548L1099.74 463.606L1100.69 464.458L1100.77 464.909L1100.79 465.402L1100.74 466.461L1100.49 468.124L1100.31 469.719L1100.46 470.947L1101.05 472.994L1101.13 473.402L1101.14 473.435L1098.05 473.597L1096.91 473.895L1092.41 476.392L1091.78 477.311L1091.38 478.969L1090.4 481.453L1088.61 483.239L1082.75 486.227L1082.37 487.483L1082.86 488.814L1084.13 489.741L1086.09 490.658L1086.59 490.988ZM1029.98 510.479L1030.31 510.357L1031.06 509.749L1031.42 509.543L1033.15 509.077L1034 509.237L1034.52 510.06L1034.06 511.444L1030.93 513.642L1029.83 514.724L1029.99 517.006L1032.97 520.223L1032.83 522.941L1032.11 524.012L1031.17 524.364L1028.9 524.415L1025.7 525.275L1024.69 525.184L1023.9 524.451L1023.74 523.48L1023.41 522.723L1022.13 522.658L1021.37 523.2L1020.44 524.121L1019.48 524.713L1018.63 524.279L1018.52 522.036L1021.41 517.47L1021.1 514.895L1020.32 514.27L1018.52 513.882L1017.63 513.408L1016.86 512.302L1015.19 508.615L1014.82 507.188L1014.89 505.721L1015.29 504.161L1016.46 501.403L1018.58 500.236L1020.11 501.197L1021.25 503.357L1022.18 505.776L1023.34 507.239L1025.18 508.45L1028.97 510.044L1029.2 510.245L1029.47 510.406L1029.98 510.479Z" fill="#2C90A8" fill-opacity="0.5" stroke="white" stroke-width="0.5" stroke-linecap="round" stroke-linejoin="round"/>
<path d="M1034.91 316.688L1035.14 316.763L1034.12 320.171L1031.6 321.947L1026.01 323.579L1016.45 330.755L1013.66 331.426L1010.33 331.278L1007.54 332.02L1006.36 335.355L1006.16 340.581L1005.41 342.109L1003.06 343.008L996.318 343.785L994.236 345.033L987.544 350.788L984.593 354.282L982.613 358.561L981.019 360.952L978.977 362.326L976.766 363.401L972.729 366.61L961.769 373.065L960.346 375.407L961.584 378.322L964.082 379.64L973.625 380.71L973.631 380.72L973.645 380.724L973.659 380.738L976.185 382.279L977.318 383.316L978.308 384.604L979.962 387.73L980.986 388.687L982.177 388.742L981.407 390.869L980.788 392.02L977.483 396.453L977.291 396.959L977.197 397.617L977.365 398.654L977.385 400.044L977.616 400.519L977.85 400.842L979.718 401.108L979.96 401.829L979.646 403.086L979.446 403.646L978.155 406.392L978.029 406.936L978.05 407.531L978.198 408.136L978.639 408.862L979.993 410.696L981.368 413.034L981.675 415.012L981.812 421.672L981.319 423.743L981.316 423.757L980.483 422.842L977.469 421.581L974.922 422.258L973.051 431.715L969.294 436.126L964.393 439.09L957.369 441.888L950.968 446.831L938.491 450.765L937 451.512L935.66 452.643L932.82 456.26L931.203 457.702L929.391 458.259L927.306 457.485L926.453 456.706L925.754 455.769L924.516 453.652L923.767 452.747L922.059 451.621L921.261 450.901L918.624 446.779L917.092 445.344L914.931 445.131L913.874 444.48L913.027 443.575L912.124 442.84L910.9 442.701L908.699 443.427L907.618 444.027L906.657 444.836L904.932 447.072L903.889 449.398L903.413 452.075L903.376 455.359L903.841 460.103L903.561 461.31L902.589 461.904L898.478 462.249L896.054 463.921L896.025 465.762L898.748 470.382H898.754L900.202 475.393L900.861 476.978L902.623 480.165L903.358 481.85L903.789 483.82L903.289 488.17L901.11 488.546L898.504 487.546L896.728 487.771L897.007 490.394L901.932 494.84V496.939L899.389 498.111L896.021 498.001L889.934 496.169L887.607 494.991L887.615 494.967L887.972 493.806L888.938 490.281L888.812 488.984L888.371 488.244L887.405 485.792L888.821 477.647L888.996 477.041L889.398 476.14L889.772 475.479L890.733 474.215L891.016 473.446L890.904 472.648L890.659 471.869L890.523 471.15L890.096 470.581L889.385 469.902L889.246 469.183L890.523 468.47L889.907 468.01L889.235 467.776L888.507 467.725L887.749 467.809L888.515 464.612L889.162 463.38L890.87 462.606L890.842 461.974L890.419 461.343L889.806 461.06L889.156 461.436L888.443 462.163L887.772 462.658L887.247 462.332L887.273 461.671L888.382 460.603L888.633 459.839L888.3 459.001L887.062 457.964L886.264 455.736L885.015 455.633L882.161 456.186L883.245 454.371L883.496 453.466L882.857 453.083L881.825 453.429L880.881 454.065L879.929 454.374L878.883 453.748L879.778 452.576L879.624 451.371L878.875 450.278L877.959 449.423L877.472 449.257L876.993 449.335L876.52 449.312L876.069 448.869L876.006 448.476L876.132 447.433L876.069 447.04L875.37 445.595L875.006 445.128L874.261 444.542L872.456 443.62L871.994 443.267L871.495 442.584L870.708 441.06L870.103 440.27L869.085 439.523L867.612 438.865L866.121 438.6L865.018 439.048L864.798 437.5L864.599 436.902L864.305 436.911L863.706 437.36L863.347 437.129L863.176 436.473L863.084 434.352L862.864 433.447L862.326 432.668L858.896 429.501L859.512 429.231L861.594 428.314L862.283 427.466L862.959 426.627L864.201 423.034L865.447 419.445L866.368 418.391L867.308 417.337L869.638 416.311L871.957 415.285L872.8 413.822L873.644 412.369L874.071 411.784L874.516 411.202L875.211 410.97L875.911 410.742L877.359 410.552L878.818 410.362L880.033 409.757L881.253 409.162L882.422 408.362L883.576 407.558L884.153 406.986L884.737 406.414L885.003 405.899L885.276 405.378L885.801 401.092L886.333 396.808L886.305 396.069L886.277 395.322L886.179 394.791L886.088 394.265L885.991 394.102L885.897 393.938L885.739 393.822L885.571 393.701L885.257 393.301L884.946 392.905L884.858 392.533L884.764 392.16L884.921 391.843L885.075 391.526L885.355 391.288L885.634 391.061L887.197 390.286L888.76 389.516L889.396 389.315L890.033 389.119L890.666 389.366L891.292 389.617L891.635 388.679L891.977 387.741L892.802 386.925L893.635 386.103L895.474 384.926L897.321 383.755L897.874 383.634L898.416 383.522L899.42 383.891L900.421 384.251L900.917 384.182L901.41 384.106L902.716 383.266L904.024 382.421L904.524 382.281L905.038 382.141L907.045 382.515L909.067 382.884L909.458 382.646L909.857 382.421L909.815 381.954L909.772 381.488L909.205 380.442L908.646 379.405L908.526 378.929L908.398 378.448L908.842 377.265L909.276 376.082L910.177 375.423L911.073 374.764L913 374.147L914.928 373.535L918.373 370.812L921.811 368.079L922.773 366.951L923.745 365.823L924.315 365.371L924.897 364.914L929.461 363.638L934.026 362.364L937.798 362.22L941.568 362.081L942.982 361.48L944.382 360.878L945.414 359.657L946.446 358.442L946.907 357.741L947.369 357.04L947.894 356.612L948.419 356.187L950.312 355.484L952.204 354.789L955.013 352.706L957.833 350.612L958.683 349.605L959.544 348.603L961.845 344.613L964.132 340.626L964.622 340.119L965.109 339.616L965.686 339.277L966.273 338.946L966.889 338.724L967.498 338.506L968.058 338.214L968.611 337.92L969.041 337.434L969.468 336.946L969.724 336.151L969.962 335.351L970.8 333.496L971.639 331.632L973.08 330.372L974.539 329.112L977.844 327.675L981.14 326.239L981.636 326.338L982.14 326.432L982.763 326.88L983.378 327.32L983.92 327.935L984.459 328.543L984.715 329.134L984.96 329.732L985.197 330.587L985.435 331.44L985.959 331.974L986.473 332.507L987.191 332.791L987.898 333.078L988.699 333.187L989.506 333.301L990.556 332.791L991.619 332.285L992.337 330.94L993.058 329.6L993.685 327.935L994.301 326.269L995.088 324.784L995.881 323.297L996.833 322.158L997.774 321.019L998.13 320.408L998.498 319.797L998.771 318.945L999.045 318.1L999.535 317.439L1000.02 316.785L1000.83 316.752L1001.63 316.719L1003.21 317.159L1004.78 317.596L1006.06 317.407L1007.34 317.22L1008.61 316.567L1009.88 315.906L1012.18 314.021L1014.47 312.137L1015.95 310.736L1018.96 308.519L1021.1 308.221L1023.26 309.116L1032.75 315.956L1034.91 316.688ZM899.095 405.478L901.244 402.745L904.679 399.619L907.24 398.335L906.547 397.613L907.029 396.771L906.337 395.728L905.402 395.126L906.437 393.335L906.186 391.874L903.685 390.267L901.605 389.986L900.008 388.861L897.722 388.887L894.131 392.517L893.589 395.366L891.827 399.748L892.023 399.939L893.168 399.257L893.289 400.381L893.771 401.383L895.458 403.307L896.544 402.186L896.604 402.547L896.212 403.428L897.056 404.95L899.095 405.478Z" fill="#2C90A8" fill-opacity="0.5" stroke="white" stroke-width="0.5" stroke-linecap="round" stroke-linejoin="round"/>
<path d="M982.176 388.744L982.612 388.764L984.922 387.878L993.213 383.09L995.514 382.74L996.794 383.542L997.935 385.079L1001.73 391.664L1002.38 393.505L1002.5 395.406L1001.5 400.937L1001.62 402.509L1002.46 403.737L1003.55 403.565L1004.87 402.932L1006.39 402.782L1007.69 403.326L1008.91 404.215L1010.02 405.359L1010.96 406.651L1012.19 407.828L1013.54 407.973L1016.45 407.531L1019.67 408.122L1021.18 408.819L1022.57 409.925L1023.8 410.618L1026.33 410.962L1027.41 411.845L1029.13 414.738L1030.19 415.462L1030.86 413.727L1030.72 411.84L1030.39 410.228L1030.57 408.983L1031.97 408.216L1033.58 408.351L1034.35 409.438L1035.18 412.825L1035.83 414.083L1036.69 415.012L1037.59 414.947L1038.32 413.224L1040.02 411.04L1044.65 415.049L1046.16 413.734L1046.53 410.613L1045.93 395.074L1046.35 393.927L1047.27 394.16L1050.53 397.229L1053.46 398.5L1055.77 398.045L1057.63 396.08L1059.89 391.186L1060.85 388.161L1061.15 386.361L1060.9 384.703L1058.99 382.243L1058.31 380.74V380.721L1058.31 380.712L1059.65 377.245L1060.47 376.244L1061.96 375.636L1063.45 375.866L1064.31 377.072L1064.67 378.828L1064.67 380.71L1063.43 385.784L1063.48 386.88L1064.13 387.118L1064.53 386.381L1064.8 385.396L1065.12 384.896L1065.85 385.2L1066.21 386.651L1066.85 386.945L1067.39 386.464L1067.44 384.56L1067.87 384.177L1068.44 384.41L1068.98 384.909L1075.33 394.427L1076.42 397.096L1076.81 400.066L1076.64 403.906L1077 407.696L1078.76 408.555L1084.13 407.63L1085.77 408.997L1086.8 410.48L1087.97 411.102L1089.99 409.88L1091.46 408.56L1093.03 407.523L1094.68 407.262L1096.41 408.29L1097.19 410.019L1097.51 412.468L1097.63 415.032L1098.25 419.724V421.482L1097.79 423.086L1096.86 425.222L1098.92 424.594L1098.53 426.052L1096.91 433.51L1096.4 433.994L1096.09 434.167L1095.69 434.349L1094.66 434.539L1090.6 434.706L1089.49 434.922L1088.3 434.789L1079.43 432.635L1077.58 432.813L1075.95 432.69H1074.47L1073.68 432.926L1070.85 434.28L1068.61 433.149L1061.61 435.026L1060.73 436.339L1059.88 436.955L1057.67 439.003L1057.39 439.517L1057.45 440.13L1058.26 441.204L1059.33 443.452L1057.38 445.376L1051.78 447.247L1045.77 450.524L1044.45 451.646L1042.32 454.93L1037.89 459.117L1036.34 459.426L1035.37 459.122L1032.31 457.439L1030.93 456.314L1030.17 456.033L1028.93 455.788L1028.23 455.562L1027.74 455.271L1025.81 453.261L1025.31 453.016L1022.66 452.72L1022.28 452.337L1026.59 446.445L1018.93 446.861L1016.77 446.555L1016.33 446.171L1015.78 445.788L1014.72 445.34L1013.36 445.332L1010.17 448.202L1009.28 448.327L1007.39 448.133L1006.48 448.202L1005.34 448.752L1004.59 449.572L1003.97 450.488L1003.24 451.31L1001.5 452.406L1001.65 451.66L1002.24 448.65L999.647 447.145L993.456 445.705L992.396 444.329L992.231 442.791L992.867 441.658L994.216 441.511L996.571 443.567L997.903 444.066L998.037 442.412L997.478 441.627L985.129 427.624L982.996 425.747L982.782 425.483L982.611 425.181L981.31 423.753L981.313 423.739L981.807 421.669L981.67 415.008L981.362 413.031L979.988 410.693L978.633 408.859L978.192 408.133L978.044 407.528L978.024 406.933L978.15 406.389L979.441 403.643L979.64 403.082L979.955 401.826L979.713 401.105L977.845 400.839L977.611 400.516L977.38 400.041L977.359 398.651L977.191 397.614L977.286 396.956L977.477 396.45L980.782 392.017L981.401 390.866L982.176 388.744ZM988.615 423.521L987.523 423.804L988.313 425.653L988.384 425.726L989.51 426.884L991.489 429.566L992.63 430.664L993.973 430.979L993.861 429.446L992.986 427.283L992.049 425.75L990.478 424.327L988.615 423.521Z" fill="#2C90A8" fill-opacity="0.5" stroke="white" stroke-width="0.5" stroke-linecap="round" stroke-linejoin="round"/>
<path d="M1098.92 424.599L1102.82 423.409L1105.31 423.058L1105.82 422.644L1106.59 420.283L1106.95 419.633L1108.19 418.631L1109.09 419.248L1111.03 422.3L1112.44 423.191L1114.36 423.757L1117.96 424.108L1118.31 424.377L1118.5 424.748L1118.54 425.207L1118.42 425.748L1118.41 427.806L1119.63 428.441L1121.31 428.557L1122.62 429.066L1125.52 433.609L1127.62 435.914L1130.25 437.07L1133.16 437.422L1141.88 436.631L1144.49 437.343L1144.78 439.965L1144.6 441.454L1145.47 441.325L1148.6 439.129L1153.61 436.803L1154.7 437.543L1155.63 438.856L1157.01 439.831L1160.99 439.577L1162.52 439.924L1163.08 440.051L1163.09 440.053L1163.44 441.856L1161.37 444.605L1158.16 446.434L1151.81 448.793L1146 452.453L1141.12 453.704L1138.75 454.723L1137.14 457.213L1136.35 463.157L1134.37 464.068L1131.88 462.926L1130.65 462.917L1130.13 464.4L1130.04 465.716L1129.72 466.982L1129.07 468.077L1128.03 468.91L1125.34 469.067L1120.57 465.78L1117.96 465.43L1116.01 464.459L1113.77 461.839L1111.52 459.854L1109.51 460.762L1109.28 462.229L1109.28 462.24L1110.73 464.686L1110.74 464.703L1110.74 466.296L1110.28 467.746L1110.3 468.74V468.749L1110.89 469.555L1113.82 471.685L1113.83 471.688L1114.12 472.424L1114.53 473.445L1114.54 473.464L1114.47 475.542L1113.74 477.788L1112.37 479.681L1110.77 480.016L1108.94 479.326L1104.94 476.974L1103.95 476.602L1100.88 476.745L1100.02 476.466L1100.03 476.444L1100.35 475.633L1101.13 475.404L1102.29 475.298L1103.27 474.972L1103.54 474.071L1103.52 474.059L1102.9 473.556L1101.66 473.413L1101.15 473.44L1101.14 473.407L1101.06 472.999L1100.47 470.952L1100.31 469.723L1100.5 468.129L1100.75 466.465L1100.8 465.407L1100.78 464.913L1100.7 464.462L1099.75 463.611L1096.24 462.552L1095.46 462.469L1094.98 462.069L1093.65 460.132L1092.7 459.439L1092.03 460.042L1091.29 460.961L1090.14 461.079L1086.06 460.209L1082.9 459.147L1080.97 459.271L1079.61 459.517L1078 459.257L1077.37 459.048L1076.83 458.757L1074.11 455.025L1073.5 453.985L1072.93 453.328L1072.18 452.893L1068.64 451.677L1067.55 451.597L1066.81 451.706L1066.47 451.952L1065.8 451.874L1064.9 451.555L1063.07 450.614L1062.36 450.585L1061.95 450.856L1061.84 452.431L1061.55 452.258L1060.88 451.297L1059.4 448.435L1057.38 445.383L1059.34 443.458L1058.27 441.211L1057.45 440.136L1057.39 439.523L1057.68 439.01L1059.88 436.961L1060.73 436.346L1061.61 435.032L1068.61 433.155L1070.86 434.286L1073.69 432.932L1074.47 432.696H1075.95L1077.58 432.819L1079.44 432.641L1088.31 434.795L1089.49 434.929L1090.61 434.712L1094.67 434.545L1095.69 434.355L1096.1 434.173L1096.4 434L1096.92 433.516L1098.53 426.058L1098.92 424.599Z" fill="#2C90A8" fill-opacity="0.5" stroke="white" stroke-width="0.5" stroke-linecap="round" stroke-linejoin="round"/>
<path d="M887.602 494.991L885.461 493.907L883.918 493.651L872.907 495.365L871.56 495.924L869.206 497.28L867.621 497.49L863.7 496.804L862.195 496.942L858.433 497.941L858.407 497.913L858.387 497.889L857.58 496.318L857.8 495.567L858.082 494.936L859.017 491.554L859.29 490.924L859.573 490.449L859.892 490.005L860.249 489.391L860.175 489.197L859.878 489.183L839.596 494.221L824.208 493.882L822.35 493.579L822.098 493.244L821.699 492.561L821.412 491.846L821.139 489.42L821.327 488.018L821.601 486.802L829.596 468.409L829.414 467.284L828.775 467.342L827.568 467.722L826.436 467.857L826.068 467.526L825.917 467.065L826.362 463.752L826.445 461.632L826.602 461.178L826.916 460.915L827.304 460.746L828.186 460.537L831.904 459.899L832.806 458.946L832.963 455.348L838.203 458.111L846.178 462.309L846.29 462.083L846.401 461.856L846.814 461.432L847.234 461.008L847.744 461.036L848.255 461.065L848.517 460.752L848.759 460.44L848.948 460.053L849.136 459.667L849.45 459.45L849.769 459.238L850.157 459.307L850.548 459.376L851.903 460.048L853.249 460.721L854.158 460.859L855.062 460.988L855.775 460.559L856.499 460.13L856.713 459.546L856.915 458.96L856.257 458.614L855.61 458.264L856.431 456.913L857.258 455.553L857.32 455.253L857.39 454.952L857.099 454.455L856.808 453.961L856.577 453.408L856.353 452.865L856.233 452.293L856.108 451.721L856.142 451.164L856.171 450.609L855.324 450.406L854.463 450.204L854.135 450.018L853.813 449.835L853.533 449.48L853.253 449.12L853.029 448.289L852.809 447.439L852.463 443.697L852.127 439.954L852.247 439.266L852.38 438.576L852.565 438.355L852.757 438.124L852.968 437.957L853.192 437.795L853.415 437.286L853.629 436.782L853.674 436.352L853.717 435.917L853.626 434.913L853.541 433.914L853.549 433.424L853.563 432.929L853.706 433.017L853.863 433.1L854.177 433.224L854.499 433.35L854.647 433.452L854.801 433.549L855.171 432.494L855.542 431.448L856.48 430.799L857.424 430.15L858.885 429.508L862.314 432.674L862.853 433.454L863.073 434.358L863.164 436.479L863.335 437.136L863.695 437.367L864.294 436.917L864.587 436.908L864.787 437.506L865.007 439.054L866.109 438.606L867.6 438.872L869.074 439.53L870.092 440.276L870.696 441.066L871.483 442.59L871.983 443.273L872.445 443.627L874.25 444.549L874.994 445.135L875.359 445.601L876.058 447.046L876.121 447.439L875.995 448.482L876.058 448.875L876.509 449.318L876.981 449.341L877.461 449.263L877.948 449.429L878.863 450.284L879.613 451.377L879.767 452.582L878.871 453.754L879.917 454.381L880.869 454.071L881.813 453.435L882.845 453.089L883.485 453.473L883.233 454.378L882.15 456.192L885.004 455.639L886.253 455.743L887.051 457.97L888.289 459.007L888.622 459.846L888.37 460.609L887.261 461.677L887.236 462.339L887.761 462.664L888.432 462.169L889.145 461.442L889.795 461.066L890.408 461.349L890.83 461.981L890.858 462.612L889.151 463.386L888.504 464.618L887.737 467.815L888.496 467.731L889.223 467.782L889.895 468.016L890.511 468.476L889.234 469.189L889.374 469.909L890.084 470.587L890.511 471.156L890.648 471.875L890.893 472.655L891.005 473.453L890.722 474.221L889.76 475.485L889.387 476.147L888.984 477.047L888.81 477.653L887.393 485.798L888.359 488.25L888.801 488.99L888.926 490.288L887.96 493.813L887.604 494.973L887.602 494.991ZM862.075 504.309L877.922 501.205L881.078 503.488L881.52 504.727L881.736 506.081L881.631 507.371L881.078 508.455L879.539 508.706L874.614 507.928L873.243 508.371L870.842 510.473L869.967 510.751L868.428 507.987L867.365 507.127L866.486 508.755L866.629 509.55L867.833 510.519L868.064 511.191L867.921 513.004L868.023 513.835L868.359 514.721L874.319 522.971L874.547 524.931L871.667 526.139L870.117 523.738L869.085 519.92L867.707 516.89L866.293 515.908L865.828 516.598L866.07 518.251L866.724 520.158L868.238 523.395L868.221 524.635L867.399 526.325L867.143 526.502L866.433 526.625L866.202 526.766L865.72 528.092L865.734 528.215L865.728 528.656L865.58 529.531L865.126 530.104L864.217 529.635L862.412 526.683L861.299 525.839L858.998 527.894L858.266 527.591L858.439 526.686L858.459 525.327L858.816 524.553L859.026 523.925L859.121 523.419L858.921 523.081L858.585 522.801L857.379 522.024L857.064 521.722L856.928 521.375L856.98 521.017L857.525 520.685L857.944 520.737L858.301 520.949L858.574 521.297L858.794 521.648L859.036 521.612L859.278 521.139L859.488 518.222L859.436 517.401L859.342 516.922L859.122 516.073L858.566 514.485L858.418 514.169L858.376 514.083L858.166 513.596L857.903 512.776L857.809 512.283L857.789 511.698L857.851 511.031L858.134 510.06L859.184 508.151L862.075 504.309Z" fill="#2C90A8" fill-opacity="0.5" stroke="white" stroke-width="0.5" stroke-linecap="round" stroke-linejoin="round"/>
<path d="M858.434 497.938L855.677 498.67L854.264 499.663L856.012 501.603L859.04 503.511L861.433 504.435L862.075 504.309L859.183 508.156L858.134 510.065L857.851 511.036L857.788 511.703L857.809 512.288L857.903 512.781L858.166 513.601L858.376 514.088L858.418 514.174L858.566 514.49L859.122 516.078L859.342 516.926L859.436 517.405L859.488 518.227L859.278 521.144L859.036 521.617L858.794 521.653L858.574 521.301L858.301 520.954L857.944 520.742L857.525 520.69L856.98 521.022L856.928 521.38L857.064 521.727L857.378 522.029L858.585 522.806L858.921 523.086L859.121 523.424L859.026 523.929L858.816 524.558L858.459 525.332L858.439 526.691L858.266 527.596L858.095 527.525L857.311 527.465L856.612 529.361L855.933 543.556L855.563 545.669L854.659 547.4L853.029 549.121L850.14 550.969L849.224 552.285L849.458 552.825L849.939 553.936L849.951 553.964L848.615 554.582L844.455 555.688L841.093 556.005L837.774 555.765L832.243 553.777L822.113 553.465L798.983 547.45L795.807 547.382L793.292 548.194L786.993 552.715L781.581 553.568L780.241 554.88L780.709 558.771L780.478 559.084L780.199 559.343L779.885 559.506L779.548 559.583L777.806 559.343L776.777 559.47L771.664 554.918L768.841 552.409L767.883 551.28L767.19 549.824L767.336 543.738L767.556 543.047L767.944 542.216L768.868 542.007L770.918 541.944L771.485 541.862L772.093 541.613L772.387 541.212L772.534 540.673L772.591 539.625L772.571 539.129L772.41 538.221L772.297 537.773L772.203 537.165L772.171 536.385L772.245 535.095L772.385 534.482L772.519 534.109L773.069 533.562L774.118 532.783L776.22 531.667L777.677 531.13L779.503 530.719L780.031 530.678L781.069 530.393L781.331 529.701L779.501 521.479L778.369 519.65L766.647 517.448L765.052 517.245L764.388 517.497L763.769 517.405L763.296 517.173L762.195 516.458L761.733 516.488L761.26 516.623L760.176 516.692L759.4 516.59L754.066 515.115L753.265 513.755L752.95 513.874L752.646 513.924L751.733 514.272L749.378 511.65L749.273 511.182L749.253 510.458L749.463 509.878L749.411 508.671L749.075 508.123L748.602 507.782L748.078 507.701L747.647 507.716L747.311 507.803L746.017 508.461L745.597 508.598L745.061 508.684L744.485 508.648L743.709 508.456L743.395 508.07L743.175 507.619L742.87 503.64L742.922 503.167L743.099 502.762L743.456 502.55L744.725 502.126L745.071 501.841L745.27 501.555L745.564 500.754L745.607 498.704L743.759 496.427L743.539 495.717L743.571 495.071L743.728 494.554L743.791 493.93L743.56 493.546L743.224 493.235L741.835 492.561L741.299 492.181L741.068 491.727L740.911 491.271L739.956 486.67L739.799 485.181L739.684 481.004L739.705 480.404L739.779 479.843L739.915 479.315L740.503 477.959L740.891 476.663L740.965 475.441L740.817 474.596L740.555 473.746L740.03 472.622L739.684 472.055L739.317 471.792L738.918 471.828L737.13 472.215L735.588 472.289L734.493 472.124L733.401 471.821L730.589 470.999L722.058 470.68L721.522 470.284L731.88 450.061L733.78 445.298L732.3 442.642L731.681 441.082L731.566 440.67V439.167L731.734 437.56L731.755 436.679L731.723 436.024L731.587 435.614L731.345 435.274L730.974 434.976L724.852 433.301L723.918 432.781L723.509 432.488L722.939 431.793L722.56 431.03L722.392 430.618L722.278 430.128L721.123 417.621L721.973 416.507L722.54 415.106L730.82 411.73L730.847 411.424L731.943 411.711L734.731 412.435L742.592 411.961L749.196 411.571L759.067 410.976L766.304 410.539L774.941 410.024L780.441 409.69L789.22 409.155L797.877 408.64L798.65 408.859L799.42 409.072L800.848 409.82L802.268 410.563L803.009 410.828L803.751 411.089L804.401 410.997L805.051 410.899L807.01 409.598L808.969 408.293L809.825 407.735L810.689 407.178L811.102 408.461L811.504 409.74L811.592 409.801L811.669 409.861L811.907 410.362L812.144 410.858L813.635 412.833L815.132 414.798L815.474 415.596L815.816 416.394L816.082 418.13L816.355 419.87L816.797 420.609L817.251 421.345L817.653 421.011L818.063 420.671L818.496 420.463L818.924 420.263L819.337 420.323L819.756 420.392L820.127 420.869L820.484 421.342L820.952 420.335L821.42 419.328L822.141 419.259L822.868 419.185L823.002 420.141L823.127 421.091L823.134 421.193L823.145 421.29L823.057 421.704L822.973 422.121L823.295 422.228L823.621 422.335L823.723 422.428L823.814 422.516L823.038 423.091L822.251 423.666L821.968 423.809L821.674 423.951L821.951 424.104L822.227 424.251L822.395 424.465L822.552 424.679L822.829 425.202L823.108 425.725L823.102 427.008L823.088 428.282L822.76 429.787L822.424 431.297L821.919 432.759L821.423 434.226L820.898 435.392L820.38 436.553L820.012 437.14L819.631 437.728L819.131 438.292L818.631 438.856L818.075 439.3L817.513 439.753L816.324 440.293L815.135 440.829L814.835 441.107L814.527 441.385L814.422 441.737L814.313 442.089L814.538 442.246L814.758 442.408L816.101 442.698L817.438 442.984L818.467 443.572L819.499 444.154L822.595 447.235L825.688 450.309L827.955 452.105L830.235 453.903L832.97 455.345L832.813 458.943L831.912 459.896L828.193 460.534L827.312 460.743L826.924 460.912L826.61 461.175L826.453 461.629L826.37 463.749L825.925 467.062L826.076 467.523L826.443 467.854L827.576 467.719L828.782 467.339L829.422 467.281L829.604 468.405L821.608 486.799L821.335 488.015L821.146 489.417L821.42 491.843L821.707 492.558L822.106 493.241L822.358 493.575L824.216 493.879L839.604 494.218L859.886 489.18L860.183 489.194L860.256 489.387L859.9 490.002L859.581 490.446L859.298 490.921L859.025 491.551L858.09 494.933L857.807 495.564L857.587 496.315L858.395 497.886L858.415 497.909L858.434 497.938Z" fill="#2C90A8" fill-opacity="0.5" stroke="white" stroke-width="0.5" stroke-linecap="round" stroke-linejoin="round"/>
<path d="M776.779 559.467L776.157 560.265L775.31 563.641L774.862 567.164L774.789 570.396L773.931 573.341L773.42 576.244L772.973 576.407L772.365 576.217L771.644 576.456L771.513 576.572L755.332 572.483L751.728 572.314L751.708 572.76L751.813 573.621L751.824 574.059L751.772 574.5L751.625 574.954L751.373 575.331L751.048 575.628L750.68 575.809L749.862 575.985L742.383 576.279L741.414 576.079L740.921 575.887L740.479 575.641L740.102 575.344L739.84 574.826L739.746 574.116L739.86 572.777L740.291 570.345L740.039 569.126L738.685 566.533L737.234 566.311L731.48 565.171L726.153 564.302L725.261 564.312L724.043 564.67L722.991 565.261L722.435 565.727L722.004 566.189L719.811 569.549L719.167 570.174L714.106 572.224L713.561 572.274L712.68 572.039L711.596 571.48L707.593 568.264L705.862 567.169L704.582 567.246L694.813 569.51L694.476 569.53L688.015 572.73L686.599 573.662L685.538 574.018L683.121 574.024L678.593 572.805L678.152 572.476L677.844 571.94L677.69 570.933L677.634 570.276L677.627 569.692L677.718 568.314L677.698 566.965L677.487 566.431L677.288 566.024L675.577 564.709L673.57 563.314L670.029 559.852L669.294 558.828L668.926 558.188V558.17L668.895 558.124L668.738 557.673L668.087 554.819L667.919 554.44L667.688 554.089L667.384 553.788L667.038 553.565L666.597 553.411L665.953 553.308L663.823 553.231L663.087 553.36L662.52 553.752L662.38 554.187L662.318 554.657L662.374 555.988L662.354 556.432L662.256 556.877L662.025 557.265L661.721 557.598L660.304 558.641L658.841 559.412L658.054 559.67L629.15 558.931L625.537 551.712L624.708 549.106L624.771 548.575L626.764 544.055L626.942 543.353L627.099 542.538L627.162 541.242L627.078 540.555L625.032 533.154L624.441 532.327L623.948 531.76L622.605 530.558L620.586 528.265L620.072 527.151L620.187 526.722L620.495 526.399L620.922 526.162L621.535 526.005L624.876 525.538L628.951 524.467L629.464 524.094L630.032 523.573L630.283 522.048L630.451 521.517L630.808 520.895L631.227 520.701L631.72 520.742L634.001 522.046L636.02 522.94L637.908 523.229L639.839 523.204L640.723 522.927L641.31 522.514L641.75 521.457L642.905 516.89L643.093 516.363L644.168 514.046L644.419 513.32L644.471 512.842L644.388 512.434L644.105 512.098L643.728 511.871L643.272 511.739L642.811 511.675L642.58 511.358L642.632 510.778L644.367 508.178L644.587 507.76L644.713 507.464L644.839 507.057L644.933 506.6L645.058 504.803L645.054 503.722L645.106 503.26L645.294 502.693L645.703 501.856L646.102 501.42L646.541 501.201L647.528 501.26L653.705 504.033L655.048 504.294L655.272 504.405L655.954 504.535L657.693 506.981L658.753 508.108L661.499 509.093L662.783 510.112L664.105 510.797L665.522 510.324L668.461 512.206L671.323 512.797L685.928 509.661L686.68 509.261L691.049 505.189L691.658 504.443L692.004 503.714L692.015 503.018L691.836 502.456L691.437 501.929L690.944 501.678L690.303 501.578L689.704 501.607L688.421 501.841L687.927 501.797L687.634 501.633L687.508 501.155L687.645 500.475L689.401 496.336L689.926 494.325L690.345 493.175L690.933 492.047L692.626 489.604L692.962 488.99L693.045 488.142L692.002 487.261L691.76 486.818L691.592 486.159L691.676 485.591L692.588 483.59L693.064 481.653L692.819 478.475L692.084 476.371L692.104 475.71L692.441 475.179L693.755 474.54L694.249 474.083L694.784 473.049L694.827 472.369L694.522 471.651L694.049 470.878L693.451 469.328L693.471 467.87L693.671 466.466L694.541 464.04L695.097 462.917L695.716 461.904L696.503 461.004L697.335 460.383L698.228 460.083L699.183 460.202L700.19 460.691L701.589 461.739L702.818 462.432L704.018 462.917L705.119 463.076L706.462 462.892L708.047 462.164L712.934 458.82L713.575 458.562L714.174 458.65L714.94 459.07L716.842 460.757L719.152 463.431L719.34 463.795L719.437 464.189L719.381 465.03L718.982 466.44L718.971 466.841L719.045 467.163L719.192 467.545L719.423 467.959L720.193 468.98L721.516 470.283L722.051 470.679L730.583 470.997L733.395 471.819L734.486 472.122L735.581 472.287L737.124 472.213L738.912 471.827L739.311 471.791L739.678 472.053L740.024 472.62L740.548 473.745L740.811 474.595L740.958 475.44L740.885 476.662L740.497 477.958L739.909 479.314L739.772 479.841L739.699 480.402L739.678 481.002L739.793 485.179L739.95 486.668L740.905 491.27L741.062 491.725L741.293 492.179L741.829 492.559L743.217 493.233L743.553 493.544L743.784 493.929L743.722 494.553L743.564 495.069L743.533 495.715L743.753 496.425L745.6 498.703L745.558 500.753L745.264 501.554L745.065 501.84L744.719 502.124L743.45 502.548L743.093 502.76L742.916 503.166L742.864 503.639L743.169 507.618L743.389 508.068L743.703 508.455L744.479 508.646L745.055 508.683L745.591 508.596L746.01 508.46L747.305 507.801L747.641 507.715L748.071 507.699L748.596 507.781L749.069 508.122L749.405 508.67L749.457 509.876L749.246 510.456L749.267 511.18L749.372 511.648L751.727 514.27L752.639 513.923L752.944 513.873L753.258 513.753L754.059 515.114L759.394 516.589L760.17 516.691L761.254 516.622L761.727 516.487L762.189 516.457L763.29 517.172L763.763 517.404L764.382 517.495L765.046 517.244L766.641 517.446L778.362 519.649L779.495 521.477L781.325 529.699L781.063 530.392L780.024 530.676L779.497 530.717L777.671 531.129L776.213 531.666L774.112 532.781L773.062 533.56L772.512 534.107L772.379 534.481L772.239 535.094L772.165 536.383L772.197 537.164L772.291 537.772L772.406 538.215L772.566 539.123L772.586 539.619L772.53 540.667L772.382 541.206L772.088 541.606L771.48 541.856L770.913 541.938L768.863 542.001L767.94 542.21L767.552 543.041L767.332 543.732L767.186 549.817L767.878 551.273L768.837 552.403L771.659 554.912L776.779 559.467Z" fill="#2C90A8" fill-opacity="0.5" stroke="white" stroke-width="0.5" stroke-linecap="round" stroke-linejoin="round"/>
<path d="M771.515 576.571L771.009 577.023L770.687 577.411L770.548 578.021L770.431 579.268L770.929 582.721L770.932 582.741L772.835 584.518L781.013 587.444L786.519 587.652L789.191 588.729L789.484 589.067L790.023 590.041L790.4 590.449L790.862 590.531L791.988 590.289L792.422 590.429L793.031 591.472L793.041 591.489L793.167 592.683L792.397 599.446L792.733 601.569L792.736 601.588L792.805 601.657L791.801 602.426L790.581 602.92L785.666 603.139L784.805 603.359L784.015 603.69L783.616 603.929L783.207 604.284L782.714 604.793L782.315 605.409L782.137 606.056L782.148 606.789L782.653 608.816L783.041 611.92L784.692 614.92L784.828 615.292L784.923 615.737L784.902 616.235L784.828 616.783L784.692 617.281L784.608 617.806L784.577 618.265V618.719L784.619 619.168L784.714 619.608L784.85 620.026L785.061 620.915L785.103 621.395V621.893L784.915 622.539L784.569 623.232L783.865 624.311L783.546 625.029L783.378 625.67L783.367 627.187L783.253 627.597L783.011 627.897L782.538 627.825L782.181 627.61L780.953 626.287L780.67 626.058L780.311 625.838L779.869 625.645L778.872 625.357L777.802 625.225L776.826 625.268L775.973 625.487L774.998 625.929L774.358 626.424L773.928 626.845L773.56 627.289L769.517 635.184L768.831 636.113L767.624 637.34L766.985 637.86L765.956 638.403L763.276 639.053L762.72 640.32L761.985 641.564L760.774 642.891L758.245 644.99L757.866 645.529L757.425 646.63L757.054 648.108L756.319 652.547L755.794 654.599L755.605 655.059L754.745 656.005L747.245 662.032L743.379 664.2L742.592 664.434L740.134 664.838L739.589 665.243L738.97 665.973L737.927 667.737L737.203 669.45L736.951 670.441L736.584 671.504L736.142 672.536L735.638 673.454L727.383 681.192L726.824 681.926L726.416 683.35L726.068 686.721L725.701 687.884L724.641 689.976L722.628 691.279L721.804 688.94L721.797 688.935L721.783 688.924L719.505 687.295L717.053 686.103L714.464 685.394L709.287 685.363L707.18 684.728L700.317 681.5L697.169 677.513L695.182 675.617L692.972 674.59L688.581 673.334L684.387 669.954L682.485 668.95L678.014 668.229L671.193 664.919L668.906 664.715L666.976 665.504L663.702 668.144L661.957 669.132L657.315 669.511L652.747 667.984L641.609 660.435L634.88 655.871L625.75 649.666L619.355 643.819L610.344 635.594L605.797 632.729L595.834 629.203L587.138 624.158L572.884 612.101L569.043 607.105L569.051 607.097L570.1 605.995L576.278 599.216L579.452 597.028L588.767 593.275L592.402 591.954L603.662 587.859L604.05 587.631L604.364 587.274L604.521 586.544L604.469 586.038L604.281 585.603L604.05 585.256L601.885 582.59L601.412 581.897L601.087 581.145L600.982 580.741L600.908 580.322V579.869L600.982 579.39L601.392 578.649L602.045 577.761L607.201 572.123L607.6 571.809L608.104 571.569L608.934 571.472L609.552 571.519L610.354 571.225L611.204 570.565L617.99 563.762L621.183 561.343L627.872 559.759L629.155 558.928L658.059 559.667L658.846 559.409L660.309 558.638L661.726 557.595L662.03 557.262L662.261 556.873L662.359 556.429L662.379 555.984L662.323 554.654L662.386 554.184L662.525 553.749L663.092 553.356L663.828 553.228L665.958 553.304L666.602 553.408L667.043 553.562L667.389 553.785L667.693 554.085L667.924 554.437L668.092 554.816L668.743 557.67L668.9 558.121L668.931 558.166V558.185L669.299 558.825L670.034 559.849L673.575 563.311L675.582 564.706L677.293 566.021L677.493 566.428L677.703 566.962L677.723 568.311L677.632 569.689L677.639 570.273L677.695 570.93L677.849 571.937L678.157 572.472L678.598 572.802L683.126 574.021L685.543 574.015L686.604 573.658L688.021 572.727L694.481 569.527L694.818 569.506L704.587 567.243L705.867 567.166L707.598 568.261L711.601 571.476L712.685 572.036L713.566 572.271L714.111 572.221L719.172 570.171L719.816 569.546L722.009 566.186L722.44 565.724L722.996 565.257L724.048 564.667L725.266 564.308L726.158 564.299L731.485 565.168L737.239 566.308L738.69 566.53L740.044 569.123L740.296 570.342L739.865 572.774L739.751 574.112L739.845 574.822L740.107 575.341L740.484 575.638L740.926 575.884L741.419 576.076L742.388 576.275L749.867 575.982L750.686 575.806L751.053 575.625L751.378 575.328L751.63 574.951L751.777 574.497L751.829 574.056L751.818 573.617L751.713 572.757L751.733 572.31L755.337 572.48L771.515 576.571Z" fill="#2C90A8" fill-opacity="0.5" stroke="white" stroke-width="0.5" stroke-linecap="round" stroke-linejoin="round"/>
<path d="M792.807 601.659L793.976 602.823L802.63 604.234L804.449 604.202L809.587 602.46L809.593 602.459V602.452H809.611L810.514 602L811.466 601.744L812.438 601.753L813.579 602.147L814.111 602.463L815.154 603.478L816.266 603.69L817.393 603.28L818.519 602.448L819.052 602.311L819.604 602.262L820.157 602.311L820.685 602.448H820.699L820.71 602.462L820.725 602.463L821.76 603.726L824.044 608.8L825.31 610.677L826.009 611.716L826.684 613.469L826.607 615.385L826.006 616.832L825.167 618.005L824.132 618.927L822.985 619.605L821.4 619.931L820.2 619.89L819.444 620.362L819.213 622.242L819.416 623.119L819.815 623.888L820.117 624.691L820.068 625.666L819.718 626.197L818.007 627.415L817.474 628.722L817.657 630.308L818.563 633.551L818.711 635.302L818.483 640.279L818.662 642.179L819.166 643.325L820.811 645.836L821.196 647.154L821.336 649.903L821.567 651.16L822.211 652.384L824.862 654.935L827.366 659.533L828.524 660.724L832.033 662.703L837.405 667.51L839.042 670.128L839.342 673.449L838.237 678.493L836.557 683.245L833.92 687.282L833.108 688.917L833.101 688.924V688.935L833.093 688.941L833.087 688.947L832.58 690.411L832.272 691.718L831.764 692.801L831.04 693.336L830.701 693.586L829.666 693.905L826.51 694.335L824.4 695.053L823.2 696.286L820.318 705.036L818.324 708.965L813.392 715.867L809.739 719.369L806.252 723.811L803.366 728.836L801.47 734.083L801.208 737.665L802.551 744.396L802.785 747.981L802.432 751.041L801.656 753.923L800.379 756.462L800.071 757.71L799.763 756.122L798.97 754.99L797.773 754.266L796.37 753.914L793.952 754.024L793.095 753.914L792.345 753.534L790.869 752.41L790.093 752.168L789.323 752.266L788.032 752.662L787.325 752.754L786.902 753.144L786.489 753.989L785.964 754.798L785.232 755.075L784.123 754.087L782.846 750.568L781.289 749.796L779.883 750.188L778.638 751.13L776.413 753.384L775.07 754.393L773.71 755.1L772.244 755.518L770.6 755.657L768.865 756.048L766.285 757.728L764.773 758.026L763.259 757.409L762.483 756.108L761.99 754.531L761.311 753.069L759.948 751.812L756.946 750.654L755.582 749.795L754.946 748.5L753.826 744.806L752.993 744.036L751.573 743.617L748.865 741.664L747.634 741.077L744.366 741.006L738.147 742.478L729.294 742.872L728.581 743.141L727.248 744.3L726.527 744.565L724.694 744.488L723.858 744.333L719.385 742.432L717.762 742.244L716.029 742.38L714.714 742.798L713.038 741.499L713.186 739.939L714.207 738.483L715.473 737.178L716.543 735.418L716.277 734.056L715.203 732.895L713.871 731.747L712.947 729.326L713.199 726.281L714.682 720.526L714.941 717.124L714.402 710.413L714.661 707.055L717.019 702.831L720.769 697.928L723.255 693.061L722.629 691.285L724.641 689.983L725.701 687.89L726.069 686.728L726.416 683.357L726.824 681.932L727.384 681.198L735.638 673.46L736.143 672.543L736.584 671.511L736.952 670.447L737.203 669.456L737.927 667.744L738.97 665.98L739.589 665.249L740.134 664.844L742.593 664.44L743.38 664.206L747.246 662.038L754.745 656.011L755.606 655.065L755.794 654.605L756.319 652.553L757.054 648.114L757.425 646.636L757.866 645.535L758.245 644.996L760.774 642.897L761.985 641.57L762.72 640.326L763.276 639.06L765.956 638.409L766.985 637.866L767.624 637.346L768.831 636.119L769.517 635.191L773.561 627.296L773.928 626.851L774.359 626.43L774.998 625.935L775.974 625.494L776.827 625.274L777.802 625.231L778.872 625.363L779.869 625.651L780.311 625.844L780.67 626.064L780.953 626.293L782.182 627.616L782.538 627.831L783.011 627.903L783.253 627.603L783.368 627.193L783.379 625.676L783.547 625.035L783.866 624.317L784.569 623.238L784.915 622.545L785.103 621.9V621.402L785.061 620.921L784.851 620.032L784.714 619.614L784.62 619.174L784.577 618.725V618.271L784.609 617.812L784.692 617.288L784.829 616.79L784.902 616.241L784.923 615.743L784.829 615.299L784.692 614.927L783.041 611.926L782.653 608.822L782.149 606.796L782.138 606.062L782.315 605.415L782.714 604.799L783.207 604.29L783.616 603.935L784.015 603.696L784.805 603.365L785.666 603.145L790.581 602.927L791.802 602.432L792.807 601.659Z" fill="#2C90A8" fill-opacity="0.5" stroke="white" stroke-width="0.5" stroke-linecap="round" stroke-linejoin="round"/>
<path d="M209.44 23.6331L213.854 26.6146L225.502 34.4799L235.758 41.3886L235.604 41.918L233.931 44.0638L233.075 45.9551L231.74 50.2435L230.724 53.0915L228.711 56.4171L227.197 58.332L226.539 61.6543L225.683 64.9751L224.687 67.3377L223.512 69.4741L221.16 72.564L220.144 74.9234L219.307 77.2813L218.788 79.6659L219.646 84.4052L221.319 88.4109L223.51 91.2385L229.049 97.6178L237.458 106.083L241.822 110.325L245.348 112.918L248.875 115.733L249.632 116.569L249.891 117.851L249.552 120.441L248.196 122.557L245.009 124.671L243.993 127.48L242.837 130.289L241.322 133.096L242.318 135.678L245.686 136.151L248.715 135.93L251.404 135.207L253.157 133.569L255.589 133.347L258.299 133.792L260.809 132.874L263.658 130.985L267.524 128.399L269.218 126.063L269.537 124.894L268.619 123.837L267.364 123.726L266.268 123.253L265.51 122.557L265.272 121.721V120.774L265.69 119.966L266.107 118.908L266.945 118.1L267.523 117.488H268.619L270.393 117.627L272.325 117.962L273.58 117.627L274.596 116.569L275.094 115.259L276.01 112.081L276.428 109.04L276.109 106.082L275.352 101.027L274.177 97.1418L272.663 94.0645L272.165 91.0138L271.986 88.4094L273.161 86.8683L274.336 85.9164L275.591 84.4036L276.607 82.2453L277.105 79.6643V76.1L277.284 71.6073V69.2919L278.582 70.1621L291.727 78.9559L304.124 87.2438L315.436 94.7918L325.301 101.369L333.381 106.748L339.321 110.702L343.54 113.507L345.289 115.479L346.512 117.989L346.946 120.287L347.386 125.183L348.044 127.39L352.024 133.807L359.789 142.223L363.496 146.244L367.212 150.267L371.956 155.746L375.839 160.25L379.736 164.752L383.626 169.248L387.515 173.74L391.313 178.133L395.12 182.526L398.926 186.912L402.724 191.292L407.803 197.124L409.174 197.718L410.538 198.312L410.687 198.284L417.922 210.694L421.315 213.838L439.624 218.922L440.653 219.527L440.642 220.456L440.274 221.529L421.851 256.37L404.498 289.779L400.768 298.519L399.246 317.516V318.639L399.446 319.514L407.167 333.766L408.503 336.605L408.221 337.095L407.409 337.96L392.864 346.186L391.39 347.433L391.433 348.635L391.968 349.869L420.992 389.878L440.235 416.672L440.287 417.904L424.993 425.261L421.421 426.436L420.403 426.099L419.448 425.554L419.171 425.268L411.084 412.352L399.562 399.59L395.57 396.524L392.514 394.653L389.24 393.255L376.307 390.123L372.641 390.113L371.308 390.418L370.077 391.035L369.039 391.865L367.958 393.167L365.268 398.363L364.082 399.271L362.361 399.436L360.752 398.806L360.315 398.543L359.283 398.029L358.482 395.399L357.621 394.092L354.029 390.082L352.752 389.329L348.834 388.569L347.306 387.953L345.218 386.054L342.786 383.305L341.993 382.787L341.146 382.425L339.425 382.064L323.389 367.526L321.196 365.023L319.451 361.902L318.3 358.38L317.533 356.886L316.466 356.272L313.221 356.168L311.804 355.807L310.629 355.031L309.677 353.814L307.781 350.388L307.036 348.063L305.206 345.24L304.661 343.807L304.704 339.701L304.47 337.822L303.508 337.032L300.161 336.665L296.764 335.79L296.04 335.398L294.595 334.275L293.497 334.47L293.098 334.706L291.807 335.849L288.351 338.286L286.956 338.873L285.117 338.944L284.056 339.156L283.594 339.523L283.395 339.94L283.5 340.347L283.637 340.755L284.424 342.302L284.56 343.308L283.753 345.337L282.957 346.226L281.405 343.842L279.411 342.122L272.297 339.42L268.784 339.547L267.818 339.112L267.069 337.821L267.174 336.619L267.936 335.722L269.133 335.373L269.153 335.38H269.174H269.194L273.209 333.812L272.999 330.215L271.67 325.733L272.292 321.503L273.404 320.689L274.79 320.115L275.902 319.302L276.133 317.77L275.306 316.578L273.739 315.64L270.737 314.457L268.365 312.304L266.483 309.353L264.35 307.003L261.279 306.658L258.256 307.027L252.38 306.493L238.072 308.705L234.574 308.601L232.88 307.949L230.18 305.03L228.592 304.479L225.142 304.1L223.198 303.039L222.302 301.408L221.498 294.407L220.854 292.65L219.896 291.105L215.593 286.603L213.963 285.57L212.235 285.756L210.269 286.712L208.318 287.25L206.331 287.366L203.317 286.822L198.56 284.667L194.027 280.446L179.462 263.217L177.811 262.264L176.559 264.356L175.635 272.179L174.201 274.857L171.403 275.69L167.927 275.471L164.457 274.658L157.152 271.689L155.501 271.634L154.235 272.036L150.646 274.241L148.091 275.365L146.86 276.299L146.23 277.642L146.615 279.413L147.881 280.556L156.36 284.559L158.747 286.43L160.831 289.641L162.636 293.921L167.66 302.113L170.388 305.352L171.158 306.067L171.466 306.873L171.229 307.618L170.388 308.128L166.037 308.789L164.931 308.505L164.133 307.274L164.153 305.852L164.518 304.283L164.749 302.61L164.056 299.35L162.314 297.005L160.019 295.313L153.296 292.127L151.813 291.859L150.589 292.064L148.134 293.126L147.036 293.228L145.952 292.591L144.406 290.278L143.427 289.306L142.139 288.85L140.608 288.803L139.103 289.086L137.865 289.663L137.144 290.58L136.55 291.65L134.822 293.642L132.983 294.465L131.836 295.443L132.221 297.872L133.669 301L133.789 302.427L133.201 304.562L130.444 310.909L129.472 312L126.883 312.841L126.33 314.036L126.82 315.475L127.687 316.455L127.898 317.322L126.407 318.408L125.106 318.695L120.482 318.48L119.173 318.791L115.43 320.639L112.282 321.27L102.704 319.595L96.204 319.859L89.8373 322.982L84.3942 328.352L80.6791 335.353V335.376L78.1469 339.145L75.3617 341.266L68.863 344.327L66.9529 346.969L66.9324 350.472L68.4295 357.64L68.2614 361.055L67.7289 363.972L67.6519 366.828L68.863 370.064L70.3664 372.548L71.1424 374.918L71.3937 377.526L71.345 380.721L71.6529 383.223L72.5624 385.724L73.8631 387.95L75.346 389.629L76.3042 390.324L77.3394 390.837L80.7325 391.672L81.2509 392.067L81.1032 392.683L80.3414 393.593L78.9009 394.626L75.745 396.21L74.4082 397.751L72.3237 401.563L71.0151 402.327L62.7382 400.596L56.3432 399.246L41.2174 398.422L38.7605 398.288L24.7562 397.523L12.1563 396.829L1.1728 396.237L1.15866 375.51L1.14452 354.722L1.13824 333.854L1.1241 312.911L1.11782 291.892L1.10525 270.806L1.09896 249.631L1.08483 228.377L1.07854 207.046L1.06441 185.632L1.05812 164.136L1.04398 142.559L1.0377 120.889L1.02356 99.1431L1.01728 77.3065L1 55.385V55.3756V55.3662V55.3567V55.3473V55.33V55.3096V55.3002V55.2908V55.2813L1.00628 55.2719L1.01257 55.2625V55.2531V55.2436H1.01885V55.2295V55.2201L1.02514 55.2106L1.03299 55.2012L1.03927 55.1965L1.04713 55.1871L1.05341 55.1824L1.05969 55.1776V55.1682H1.06598L1.07226 55.1588L1.07854 55.1541L1.08483 55.1494L1.09268 55.1447L1.09896 55.14H1.10682H1.1131L1.11939 55.1305L1.12567 55.1258H1.13195L1.13824 55.1211L1.14452 55.1164H1.1508L1.15709 55.1117H1.16337L7.50182 53.068L13.8466 51.0337L20.185 48.9931L26.5439 46.9479L32.8886 44.9058L39.2333 42.8636L45.5718 40.8199L50.52 39.2271L51.9165 38.7778L58.2691 36.7325L64.6076 34.692L70.9523 32.6467L77.297 30.5951L83.6496 28.553L89.9944 26.4999L96.3391 24.4515L102.685 22.4015L111.143 19.8033L119.6 17.1988L128.066 14.5974L136.531 11.9898L140.441 10.8179L144.353 9.65548L148.264 8.48833L152.19 7.31646L156.261 6.13831L160.339 4.95073L164.417 3.76316L168.489 2.57872L173.974 1L175.563 1.14923L177.41 1.96766L177.999 2.36666L177.944 2.55045L176.848 5.33717L176.588 7.09968L176.27 8.15059L175.393 10.111L175.134 11.1902L175.173 13.9455L174.934 14.6556L174.675 14.8833L174.097 15.1959L173.838 15.4237L173.659 15.7646L172.961 17.5522L170.61 20.8699L170.27 21.4935L170.091 21.7763L169.373 22.4565L166.225 26.8486L165.946 27.5288L165.767 28.2938L165.548 30.6721L164.711 33.3033L163.855 35.2543L163.476 36.7247L163.098 39.8334L162.74 41.3305L162.182 42.8275L161.485 44.1831L161.067 44.7487L160.071 45.765L159.653 46.3572L159.373 47.0343L159.233 47.683L159.094 49.122L158.814 50.4478L154.31 61.5475L153.652 65.8517L153.453 68.6353L153.512 71.4455L154.967 75.5455L156.382 79.1381L158.275 82.195L159.411 86.3154L159.232 88.5837L158.853 90.1514L158.275 91.4945L156.86 92.4182L155.167 94.7965L154.868 96.3344L154.331 97.2847L154.072 98.067L153.952 98.8776L154.411 102.371L155.547 106.198L157.24 107.789L158.575 109.241L161.305 109.658L164.534 109.379L167.861 107.51L171.387 104.69L174.416 101.869L176.428 99.2703L177.445 97.6209L178.282 96.1946L179.617 94.5436L181.31 92.1936L182.825 89.5906L184 87.9381L185.156 86.2855L185.495 85.109L184.499 83.315L183.144 82.726L181.471 82.0253L182.487 84.2685L181.312 84.633L179.619 84.157L178.96 82.9789L179.619 79.4177L180.456 77.762L180.974 76.5839L182.31 76.1063L183.326 75.6288L184.661 76.1063L185 78.0149L185.34 79.1931L186.336 80.1183L187.691 80.3712L189.883 79.8937L191.058 78.4626L190.718 76.5823L189.204 75.1512L188.367 73.7469L189.044 71.3592L189.202 68.296L188.365 65.2029L187.867 62.3612V60.4479L189.202 59.9971L191.056 59.7442L192.052 57.6046L192.391 55.2389L192.91 53.5769L193.408 50.7289L191.893 49.7707L190.379 50.9552L189.204 53.324L186.673 54.7614L184.999 54.9876L183.326 56.4249L181.314 54.9876L181.135 52.8732L181.972 50.476L183.147 47.8527L184.163 45.4823L186.336 43.1102L187.352 41.1891L189.206 39.2962L191.218 37.375L192.732 36.6681L189.545 34.293L187.87 32.1425L186.336 26.1684L185.677 22.3434L185.498 19.7059L185.677 16.8406L186.673 13.4915L187.69 10.6231L188.268 9.32403L188.304 9.34916L194.894 13.812L203.519 19.6509L209.44 23.6331Z" fill="#2C90A8" fill-opacity="0.5" stroke="white" stroke-width="0.5" stroke-linecap="round" stroke-linejoin="round"/>
<path d="M410.7 198.284L416.29 197.258L418.669 196.815L421.061 196.372L423.454 195.931L425.832 195.492L429.658 194.789L433.479 194.08L437.299 193.37L441.119 192.668L447.298 191.661L453.474 190.649L459.653 189.642L465.837 188.634L472.014 187.627L478.192 186.62L484.37 185.613L490.555 184.598L500.867 185.538L511.18 186.486L521.499 187.42L531.804 188.359L541.182 189.217L550.574 190.071L559.949 190.93L569.324 191.782L573.054 192.115L574.236 191.774L575.411 191.433L582.218 187.651L588.731 184.025L595.451 180.28L602.045 176.601L603.266 176.141L604.48 175.676L605.564 175.845L606.642 176.02L607.768 177.033L608.915 178.056L616.205 187.578L623.496 197.093L626.868 200.675L630.233 204.242L637.208 208.629L644.173 213.014L645.513 214.204L646.85 215.394L652.601 227.305L656.273 234.893L661.346 245.356L665.691 254.326L666.285 254.394L666.866 254.461L676.635 249.17L686.404 243.869L684.946 266.808L683.487 289.652L683.319 292.071L683.151 294.492L682.808 295.28L682.472 296.069L681.674 296.381L680.876 296.694L680.68 297.327L680.477 297.962L680.44 300.725L680.229 315.791L679.987 333.565L680.056 334.055L680.133 334.547L680.421 334.783L680.715 335.006L688.864 335.04L696.291 335.069L703.685 335.094L711.86 335.131L712.119 335.094L712.364 335.059L712.624 335.072L712.88 335.081L713.107 335.138L713.338 335.19L713.506 335.288L713.674 335.383L714.846 346.882L716.026 358.355L718.181 369.544L720.343 380.716L723.246 394.015L726.135 407.28L727.66 409.13L729.165 410.979L730.852 411.421L730.825 411.727L722.545 415.103L721.978 416.504L721.128 417.618L722.283 430.125L722.397 430.615L722.566 431.027L722.944 431.79L723.514 432.484L723.923 432.778L724.857 433.298L730.979 434.973L731.35 435.271L731.592 435.61L731.728 436.02L731.76 436.675L731.739 437.557L731.571 439.164V440.667L731.686 441.079L732.305 442.638L733.785 445.295L731.885 450.058L721.527 470.281L720.205 468.979L719.435 467.958L719.204 467.543L719.056 467.161L718.982 466.839L718.993 466.439L719.392 465.028L719.449 464.188L719.352 463.793L719.163 463.429L716.854 460.755L714.952 459.068L714.185 458.649L713.586 458.561L712.946 458.818L708.059 462.163L706.474 462.89L705.13 463.074L704.029 462.915L702.829 462.43L701.601 461.737L700.201 460.689L699.194 460.201L698.239 460.081L697.347 460.381L696.514 461.002L695.727 461.902L695.108 462.915L694.552 464.038L693.682 466.464L693.483 467.868L693.462 469.326L694.061 470.876L694.533 471.649L694.838 472.367L694.796 473.047L694.26 474.081L693.767 474.538L692.452 475.177L692.116 475.708L692.095 476.37L692.831 478.473L693.076 481.651L692.6 483.588L691.687 485.589L691.604 486.158L691.772 486.816L692.014 487.259L693.057 488.14L692.974 488.988L692.637 489.603L690.944 492.045L690.357 493.173L689.937 494.323L689.412 496.334L687.656 500.473L687.52 501.153L687.645 501.631L687.939 501.796L688.432 501.84L689.716 501.606L690.314 501.576L690.955 501.676L691.448 501.928L691.847 502.454L692.026 503.016L692.015 503.712L691.67 504.441L691.06 505.187L686.692 509.259L685.939 509.659L671.335 512.795L668.473 512.204L665.534 510.322L664.117 510.795L662.794 510.11L661.511 509.091L658.765 508.106L657.704 506.98L655.965 504.534L655.284 504.403L655.059 504.292L653.716 504.031L647.539 501.259L646.553 501.199L646.113 501.419L645.714 501.854L645.306 502.691L645.117 503.258L645.057 503.722L645.068 504.801L644.943 506.598L644.848 507.055L644.723 507.462L644.597 507.759L644.377 508.177L642.641 510.776L642.59 511.356L642.82 511.673L643.282 511.738L643.738 511.87L644.115 512.096L644.398 512.432L644.481 512.841L644.429 513.318L644.178 514.044L643.103 516.361L642.915 516.889L641.76 521.455L641.32 522.512L640.733 522.925L639.848 523.202L637.918 523.227L636.03 522.938L634.011 522.044L631.73 520.74L631.237 520.7L630.817 520.893L630.461 521.515L630.293 522.046L630.041 523.571L629.474 524.093L628.961 524.465L624.886 525.536L621.545 526.003L620.932 526.16L620.505 526.397L620.197 526.721L620.082 527.15L620.596 528.263L622.614 530.557L623.957 531.758L624.451 532.326L625.041 533.152L627.088 540.554L627.172 541.24L627.109 542.536L626.952 543.351L626.774 544.054L624.781 548.573L624.718 549.104L625.547 551.71L629.16 558.93L627.877 559.761L621.188 561.344L621.02 558.901L620.904 558.294L620.228 555.958L619.809 554.987L619.535 554.49L618.455 552.998L617.248 551.779L616.227 551.207L614.611 550.617L613.305 549.863L612.76 548.036L612.54 546.121L612.52 544.688L611.964 542.729L610.726 540.648L602.644 536.85L602.036 535.854L601.015 535.642L598.073 536.996L596.761 536.919L595.817 536.446L595.575 535.7L595.229 534.899L595.135 534.39L591.953 532.629L590.071 531.331L585.156 524.509L584.106 522.336L585.061 520.079L586.162 517.632L588.36 514.854L588.602 514.476L589.127 513.921L589.662 512.765L593.797 510.864L595.011 510L596.208 508.846L597.143 507.534L600.354 500.962L601.386 500.12L601.991 500.098L602.501 499.708L602.92 499.411L603.382 499.297L605.407 499.05L605.49 498.744L605.208 498.169L604.169 496.848L602.176 494.816L601.406 493.558L601.312 493.205L601.354 492.999L601.679 492.889L602.281 492.311L603.404 488.96L601.714 487.25L601.354 485.529L601.386 484.749L601.491 483.922L601.679 483.087L602.302 482.32L603.425 481.698L605.779 481.296L607.302 481.282L608.613 481.654L609.981 482.853L611.43 483.825L612.972 484.334L620.934 484.417L621.661 482.922L623.192 478.041L624.444 476.865L625.924 475.13L627.729 469.481L627.844 468.371L628.614 467.223L629.138 466.758L629.779 466.574L630.45 466.61L633.991 467.369L634.892 467.402L634.944 466.377L634.693 465.317L634.545 463.526L634.525 461.318L634.672 458.975L634.998 456.698L636.597 451.159L633.351 452.1L612.836 450.673L606.158 449.03L603.814 447.687L601.471 445.731L600.515 443.103L599.897 440.73L598.459 431.726L597.869 429.591L597.05 429.482L594.878 432.571L592.713 433.51L589.761 434.126L580.803 434.528L578.522 435.398L577.23 436.088L575.174 444.082L573.649 445.501L555.32 443.312L552.452 442.282L551.517 440.35L551.402 434.459L551.055 431.408L549.67 429.343L548.344 428.226L547.075 427.883L545.711 428.356L544.374 429.438L543.157 431.201L539.134 439.632L534.303 446.847L526.237 449.679L526.342 447.934L523.862 445.408L522.33 442.703L501.961 430.136L491.53 424.251L482.634 420.786L476.649 419.415L475.03 418.482L465.903 402.295L454.517 388.844L452.846 385.867L450.694 380.9L444.989 380.765L421 389.884L391.976 349.876L391.441 348.641L391.398 347.439L392.872 346.192L407.417 337.967L408.229 337.101L408.511 336.611L407.175 333.773L399.454 319.52L399.254 318.645V317.522L400.777 298.525L404.506 289.785L421.859 256.376L440.293 221.536L440.661 220.463L440.672 219.533L439.643 218.928L421.334 213.845L417.941 210.7L410.7 198.284Z" fill="#2C90A8" fill-opacity="0.5" stroke="white" stroke-width="0.5" stroke-linecap="round" stroke-linejoin="round"/>
<path d="M341.383 404.546L340.491 406.081L340.049 406.574L339.602 406.951L336.369 403.585L331.633 402.435L317.998 403.263L309.826 406.012L305.762 406.114L303.404 405.435L301.459 404.031L297.787 400.332L293.701 397.314L287.188 393.956L279.78 390.129L277.878 388.236L277.409 386.1L278.256 378.853L278.789 377.307L279.67 376.041L280.825 375.017L283.624 373.61L284.554 372.469L283.938 370.807L279.433 364.395L277.348 360.364L276.732 357.197L278.475 354.698L280.336 353.405L282.455 353.223L285.001 354.03L287.337 355.518L288.66 356.113L289.724 355.969L290.507 354.789L290.382 353.499L289.724 352.247L288.899 351.198L287.947 350.384L284.742 348.476L283.727 347.422L282.956 346.237L283.753 345.348L284.56 343.319L284.423 342.313L283.636 340.766L283.5 340.358L283.394 339.951L283.594 339.534L284.056 339.167L285.116 338.955L286.956 338.884L288.351 338.297L291.806 335.86L293.098 334.717L293.497 334.481L294.595 334.286L296.04 335.409L296.764 335.8L300.16 336.675L303.508 337.043L304.469 337.833L304.703 339.712L304.661 343.818L305.206 345.251L307.036 348.074L307.781 350.399L309.677 353.825L310.629 355.042L311.804 355.818L313.221 356.179L316.466 356.283L317.533 356.897L318.299 358.391L319.451 361.913L321.196 365.034L323.389 367.537L339.424 382.075L341.146 382.436L341.993 382.798L342.786 383.316L345.218 386.065L347.305 387.964L348.834 388.58L352.751 389.34L354.029 390.093L357.621 394.103L358.482 395.41L359.283 398.04L360.315 398.553L360.752 398.817L362.36 399.447L364.082 399.282L365.268 398.374L367.957 393.178L369.038 391.876L370.077 391.046L371.308 390.429L372.64 390.124L376.307 390.134L389.24 393.266L392.513 394.664L395.57 396.535L399.562 399.601L411.084 412.363L419.171 425.279L419.447 425.565L420.402 426.11L421.42 426.447L424.992 425.272L436.044 437.729L438.236 441.144L439.058 444.137L435.56 451.785L421.449 469.36L421.444 469.367L421.328 469.158L420.783 467.128L420.384 466.3L417.865 462.926L416.953 461.043L415.558 455.562L414.788 454.316L412.556 451.872L411.814 450.691L411.276 448.784L410.5 444.706L408.37 437.198L407.614 435.426L408.124 434.756L407.796 433.436L407.614 427.115L407.383 425.285L406.81 423.797L401.843 415.414L400.52 413.961L385.388 402.768L379.497 400.214L372.914 398.469L370.416 398.184L368.898 398.934L367.983 400.828L367.324 403.997L365.666 404.95L364.379 407.773L362.477 409.873L360.141 411.058L357.56 411.146L354.811 410.021L347.842 405.046L346.639 405.008L342.637 405.696L342.26 404.878L342.049 404.073L341.79 403.865L341.383 404.546Z" fill="#2C90A8" fill-opacity="0.5" stroke="white" stroke-width="0.5" stroke-linecap="round" stroke-linejoin="round"/>
<path d="M569.043 607.11L566.998 604.447L565.389 603.443L563.345 603.687L558.105 606.318L556.357 606.697L554.355 606.318L552.326 605.255L541.433 597.443L531.981 590.66L524.482 585.269L520.368 581.019L513.092 570.821L508.797 566.721L499.394 560.014L477.077 544.063L466.079 536.188L456.852 529.569L448.931 523.882L445.02 519.933L444.289 519.514L439.431 513.375L438.695 511.014L437.506 506.045L437.318 504.014L437.601 502.102L438.163 500.495L438.542 498.893L438.276 497.006L436.198 492.481L435.921 490.674L435.87 488.322L435.621 486.557L435.065 484.947L433.323 481.436L432.904 479.791L432.693 476.038L432.04 475.239L426.443 472.007L423.229 471.041L421.766 469.932L421.443 469.354L421.447 469.348L435.558 451.773L439.057 444.125L438.235 441.132L436.042 437.717L424.991 425.26L440.285 417.902L440.233 416.67L420.99 389.876L444.979 380.757L450.684 380.892L452.836 385.859L454.508 388.836L465.893 402.288L475.02 418.474L476.64 419.407L482.625 420.778L491.521 424.244L501.951 430.128L522.321 442.695L523.852 445.4L526.333 447.926L526.227 449.671L534.294 446.839L539.124 439.624L543.147 431.193L544.365 429.431L545.701 428.348L547.065 427.875L548.334 428.218L549.66 429.335L551.045 431.4L551.393 434.451L551.507 440.342L552.442 442.274L555.31 443.305L573.639 445.493L575.165 444.074L577.221 436.08L578.512 435.391L580.793 434.52L589.752 434.118L592.703 433.502L594.868 432.563L597.04 429.475L597.859 429.583L598.45 431.718L599.887 440.722L600.506 443.096L601.461 445.724L603.805 447.679L606.148 449.023L612.826 450.666L633.342 452.092L636.587 451.151L634.988 456.69L634.663 458.968L634.515 461.31L634.536 463.518L634.683 465.309L634.935 466.37L634.883 467.394L633.981 467.361L630.44 466.602L629.77 466.566L629.129 466.75L628.604 467.215L627.834 468.363L627.72 469.474L625.915 475.122L624.435 476.857L623.183 478.033L621.651 482.914L620.924 484.409L612.963 484.326L611.42 483.817L609.972 482.845L608.604 481.646L607.292 481.274L605.77 481.288L603.415 481.69L602.292 482.312L601.67 483.079L601.481 483.915L601.376 484.741L601.345 485.522L601.704 487.242L603.395 488.952L602.271 492.303L601.67 492.881L601.345 492.991L601.302 493.197L601.397 493.55L602.166 494.809L604.16 496.84L605.198 498.161L605.481 498.736L605.398 499.042L603.373 499.289L602.911 499.403L602.491 499.7L601.981 500.09L601.376 500.112L600.344 500.954L597.133 507.526L596.199 508.838L595.001 509.993L593.787 510.857L589.653 512.757L589.117 513.913L588.592 514.468L588.35 514.847L586.153 517.624L585.052 520.071L584.097 522.329L585.146 524.501L590.061 531.323L591.943 532.621L595.126 534.382L595.22 534.891L595.565 535.692L595.807 536.438L596.751 536.911L598.063 536.988L601.005 535.634L602.026 535.846L602.634 536.842L610.712 540.646L611.95 542.728L612.506 544.687L612.526 546.119L612.746 548.034L613.291 549.861L614.596 550.615L616.213 551.206L617.234 551.778L618.44 552.997L619.521 554.489L619.795 554.985L620.214 555.956L620.889 558.292L621.006 558.9L621.174 561.343L617.98 563.762L611.194 570.565L610.344 571.225L609.543 571.519L608.924 571.472L608.095 571.569L607.59 571.809L607.191 572.124L602.036 577.761L601.382 578.649L600.972 579.39L600.899 579.869V580.322L600.972 580.741L601.078 581.145L601.403 581.897L601.876 582.59L604.04 585.256L604.271 585.603L604.46 586.038L604.512 586.544L604.354 587.275L604.04 587.631L603.652 587.859L592.392 591.954L588.757 593.275L579.442 597.028L576.269 599.216L570.091 605.995L569.041 607.097L569.043 607.11Z" fill="#2C90A8" fill-opacity="0.5" stroke="white" stroke-width="0.5" stroke-linecap="round" stroke-linejoin="round"/>
<path d="M899.096 405.478L897.056 404.948L896.212 403.426L896.603 402.545L896.543 402.184L895.458 403.305L893.771 401.381L893.289 400.379L893.168 399.256L892.023 399.937L891.826 399.746L893.589 395.365L894.131 392.515L897.722 388.885L900.007 388.86L901.605 389.984L903.685 390.266L906.185 391.873L906.437 393.333L905.402 395.124L906.336 395.726L907.029 396.769L906.547 397.611L907.24 398.334L904.679 399.617L901.244 402.743L899.096 405.478Z" fill="#2C90A8" fill-opacity="0.5" stroke="white" stroke-width="0.5" stroke-linecap="round" stroke-linejoin="round"/>
</svg>
