<svg  width="12" height="16" viewBox="0 0 12 16" fill='#85BA15' xmlns="http://www.w3.org/2000/svg">
<path fill-rule="evenodd" clip-rule="evenodd" d="M1.75 0C0.7835 0 0 0.783501 0 1.75V14.25C0 15.2165 0.7835 16 1.75 16H10.25C11.2165 16 12 15.2165 12 14.25V1.75C12 0.783502 11.2165 0 10.25 0H1.75ZM1.5 1.75C1.5 1.61193 1.61193 1.5 1.75 1.5H10.25C10.3881 1.5 10.5 1.61193 10.5 1.75V14.25C10.5 14.3881 10.3881 14.5 10.25 14.5H1.75C1.61193 14.5 1.5 14.3881 1.5 14.25V1.75ZM6 13C6.55228 13 7 12.5523 7 12C7 11.4477 6.55228 11 6 11C5.44772 11 5 11.4477 5 12C5 12.5523 5.44772 13 6 13Z" fill="white"/>
</svg>
