<svg width="16" height="12" viewBox="0 0 16 12" fill="none" xmlns="http://www.w3.org/2000/svg">
<path fill-rule="evenodd" clip-rule="evenodd" d="M0 1.75C0 0.7835 0.783502 0 1.75 0H14.25C15.2165 0 16 0.7835 16 1.75V10.25C16 11.2165 15.2165 12 14.25 12H1.75C0.783501 12 0 11.2165 0 10.25V1.75ZM1.75 1.5C1.61193 1.5 1.5 1.61193 1.5 1.75V10.25C1.5 10.3881 1.61193 10.5 1.75 10.5H14.25C14.3881 10.5 14.5 10.3881 14.5 10.25V1.75C14.5 1.61193 14.3881 1.5 14.25 1.5H1.75ZM3.5 4.25C3.5 3.83579 3.83579 3.5 4.25 3.5H11.25C11.6642 3.5 12 3.83579 12 4.25C12 4.66421 11.6642 5 11.25 5H4.25C3.83579 5 3.5 4.66421 3.5 4.25ZM4.25 6.5C3.83579 6.5 3.5 6.83579 3.5 7.25C3.5 7.66421 3.83579 8 4.25 8H8.25C8.66421 8 9 7.66421 9 7.25C9 6.83579 8.66421 6.5 8.25 6.5H4.25Z" fill="white"/>
</svg>
