<svg width="14" height="16" viewBox="0 0 14 16" fill="none" xmlns="http://www.w3.org/2000/svg">
<path fill-rule="evenodd" clip-rule="evenodd" d="M10.536 3.4639C11.0004 3.92821 11.3689 4.47946 11.6202 5.08618C11.8716 5.69289 12.0009 6.34318 12.0009 6.9999C12.0009 7.65662 11.8716 8.3069 11.6202 8.91362C11.3689 9.52033 11.0004 10.0716 10.536 10.5359L7 14.0699L3.464 10.5349C2.99965 10.0706 2.6313 9.51927 2.38 8.91257C2.12869 8.30586 1.99934 7.65559 1.99934 6.9989C1.99934 6.3422 2.12869 5.69194 2.38 5.08523C2.6313 4.47852 2.99965 3.92725 3.464 3.4629C3.92836 2.99854 4.47963 2.6302 5.08633 2.37889C5.69304 2.12758 6.34331 1.99824 7 1.99824C7.6567 1.99824 8.30696 2.12758 8.91367 2.37889C9.5204 2.6302 10.0716 2.99854 10.536 3.4629V3.4639ZM11.596 11.5959C12.5051 10.6869 13.1242 9.52869 13.3751 8.2678C13.6259 7.00691 13.4972 5.69994 13.0053 4.51219C12.5133 3.32444 11.6802 2.30925 10.6113 1.59499C9.5423 0.880744 8.2856 0.499512 7 0.499512C5.7144 0.499512 4.45767 0.880744 3.38874 1.59499C2.31981 2.30925 1.48669 3.32444 0.99473 4.51219C0.50278 5.69994 0.37409 7.00691 0.62494 8.2678C0.87579 9.52869 1.49491 10.6869 2.404 11.5959L5.939 15.1319C6.0783 15.2713 6.2437 15.3819 6.42576 15.4573C6.60781 15.5328 6.80294 15.5716 7 15.5716C7.19707 15.5716 7.3922 15.5328 7.57425 15.4573C7.7563 15.3819 7.9217 15.2713 8.061 15.1319L11.596 11.5959ZM7 8.9999C7.53044 8.9999 8.03914 8.78918 8.41422 8.41411C8.78929 8.03904 9 7.53033 9 6.9999C9 6.46946 8.78929 5.96076 8.41422 5.58568C8.03914 5.21061 7.53044 4.9999 7 4.9999C6.46957 4.9999 5.96086 5.21061 5.58579 5.58568C5.21072 5.96076 5 6.46946 5 6.9999C5 7.53033 5.21072 8.03904 5.58579 8.41411C5.96086 8.78918 6.46957 8.9999 7 8.9999Z" fill="white"/>
</svg>
