<svg width="16" height="16" viewBox="0 0 16 16" fill="none" xmlns="http://www.w3.org/2000/svg">
<path fill-rule="evenodd" clip-rule="evenodd" d="M4.74861 2.37004C4.00927 2.79684 3.36123 3.36508 2.84149 4.04232C2.32176 4.71956 1.94051 5.49254 1.7195 6.31713C1.27317 7.98245 1.50666 9.75687 2.36861 11.25C3.23056 12.7432 4.65037 13.8328 6.3157 14.2791C7.98102 14.7254 9.75544 14.492 11.2486 13.63C11.4202 13.5386 11.6206 13.5174 11.8075 13.5709C11.9944 13.6244 12.1532 13.7484 12.2505 13.9168C12.3478 14.0851 12.3759 14.2846 12.3289 14.4733C12.2819 14.6619 12.1635 14.825 11.9986 14.928C10.4861 15.8008 8.72956 16.1548 6.99706 15.9359C5.26455 15.7169 3.65127 14.9371 2.40344 13.7155C1.15562 12.4939 0.341789 10.8975 0.0861775 9.17003C-0.169435 7.44256 0.14721 5.6789 0.987781 4.14823C1.82835 2.61757 3.14668 1.40398 4.74154 0.692706C6.3364 -0.0185698 8.12019 -0.188465 9.82064 0.208952C11.5211 0.606369 13.0448 1.54927 14.1592 2.89373C15.2736 4.2382 15.9175 5.91038 15.9926 7.65504C15.9966 7.68655 15.9986 7.71828 15.9986 7.75004V7.85404C15.9993 7.91737 15.9993 7.98071 15.9986 8.04404V9.25004C15.999 9.84571 15.8059 10.4253 15.4484 10.9018C15.091 11.3783 14.5885 11.7259 14.0165 11.8922C13.4445 12.0586 12.834 12.0347 12.2768 11.8242C11.7196 11.6137 11.2457 11.228 10.9266 10.725C10.2919 11.4069 9.43911 11.8459 8.51533 11.9663C7.59154 12.0866 6.65473 11.8807 5.86651 11.3842C5.0783 10.8876 4.48812 10.1315 4.1978 9.24636C3.90749 8.36117 3.93525 7.4024 4.27629 6.53548C4.61733 5.66856 5.25026 4.94787 6.06588 4.49774C6.88151 4.04762 7.82866 3.89629 8.74394 4.06988C9.65921 4.24346 10.4852 4.73107 11.0794 5.44856C11.6735 6.16606 11.9987 7.06845 11.9986 8.00004V9.25004C11.9986 9.58156 12.1303 9.8995 12.3647 10.1339C12.5991 10.3683 12.9171 10.5 13.2486 10.5C13.5801 10.5 13.8981 10.3683 14.1325 10.1339C14.3669 9.8995 14.4986 9.58156 14.4986 9.25004V7.86704C14.4756 6.73738 14.1585 5.63322 13.5786 4.66348C12.9987 3.69374 12.1761 2.89191 11.1918 2.33707C10.2075 1.78224 9.09557 1.49356 7.96569 1.49952C6.83581 1.50547 5.727 1.80586 4.74861 2.37104V2.37004ZM10.4986 8.00004C10.4986 7.337 10.2352 6.70112 9.76638 6.23227C9.29754 5.76343 8.66165 5.50004 7.99861 5.50004C7.33557 5.50004 6.69968 5.76343 6.23084 6.23227C5.762 6.70112 5.49861 7.337 5.49861 8.00004C5.49861 8.66308 5.762 9.29897 6.23084 9.76781C6.69968 10.2366 7.33557 10.5 7.99861 10.5C8.66165 10.5 9.29754 10.2366 9.76638 9.76781C10.2352 9.29897 10.4986 8.66308 10.4986 8.00004Z" fill="white"/>
</svg>
